<mxfile host="app.diagrams.net" modified="2023-06-15T14:04:53.378Z" agent="Mozilla/5.0 (Windows NT 10.0; Win64; x64) AppleWebKit/537.36 (KHTML, like Gecko) Chrome/113.0.21244.127 Safari/537.36 Avast/113.0.21244.127" etag="VkYlL5eQUNr60nhjiKc3" version="21.4.0" type="github">
  <diagram name="Page-1" id="2YBvvXClWsGukQMizWep">
    <mxGraphModel dx="880" dy="490" grid="0" gridSize="10" guides="1" tooltips="1" connect="1" arrows="1" fold="1" page="1" pageScale="1" pageWidth="850" pageHeight="1100" background="none" math="0" shadow="0">
      <root>
        <mxCell id="0" />
        <mxCell id="1" parent="0" />
        <mxCell id="xG01yMErNChcZ259U6Tp-1" value="" style="html=1;points=[];perimeter=orthogonalPerimeter;outlineConnect=0;targetShapes=umlLifeline;portConstraint=eastwest;newEdgeStyle={&quot;edgeStyle&quot;:&quot;elbowEdgeStyle&quot;,&quot;elbow&quot;:&quot;vertical&quot;,&quot;curved&quot;:0,&quot;rounded&quot;:0};" vertex="1" parent="1">
          <mxGeometry x="150.5" y="281" width="10" height="366" as="geometry" />
        </mxCell>
        <mxCell id="xG01yMErNChcZ259U6Tp-2" value="User" style="shape=umlActor;verticalLabelPosition=bottom;verticalAlign=top;html=1;" vertex="1" parent="1">
          <mxGeometry x="145" y="180" width="21" height="45" as="geometry" />
        </mxCell>
        <mxCell id="xG01yMErNChcZ259U6Tp-4" value="selects on a quiz" style="html=1;verticalAlign=bottom;endArrow=block;edgeStyle=elbowEdgeStyle;elbow=vertical;curved=0;rounded=0;" edge="1" parent="1">
          <mxGeometry x="-0.0849" y="8" relative="1" as="geometry">
            <mxPoint x="425.5" y="295" as="sourcePoint" />
            <mxPoint x="637.5" y="295" as="targetPoint" />
            <Array as="points" />
            <mxPoint as="offset" />
          </mxGeometry>
        </mxCell>
        <mxCell id="xG01yMErNChcZ259U6Tp-5" value="Displays first question" style="html=1;verticalAlign=bottom;endArrow=open;dashed=1;endSize=8;edgeStyle=elbowEdgeStyle;elbow=vertical;curved=0;rounded=0;" edge="1" source="xG01yMErNChcZ259U6Tp-3" parent="1">
          <mxGeometry relative="1" as="geometry">
            <mxPoint x="445.5" y="370" as="targetPoint" />
          </mxGeometry>
        </mxCell>
        <mxCell id="xG01yMErNChcZ259U6Tp-6" value="" style="html=1;points=[];perimeter=orthogonalPerimeter;outlineConnect=0;targetShapes=umlLifeline;portConstraint=eastwest;newEdgeStyle={&quot;edgeStyle&quot;:&quot;elbowEdgeStyle&quot;,&quot;elbow&quot;:&quot;vertical&quot;,&quot;curved&quot;:0,&quot;rounded&quot;:0};" vertex="1" parent="1">
          <mxGeometry x="410.5" y="291" width="10" height="80" as="geometry" />
        </mxCell>
        <mxCell id="xG01yMErNChcZ259U6Tp-7" value="Main page displays" style="html=1;verticalAlign=bottom;startArrow=oval;endArrow=block;startSize=8;edgeStyle=elbowEdgeStyle;elbow=vertical;curved=0;rounded=0;" edge="1" parent="1">
          <mxGeometry x="0.0044" relative="1" as="geometry">
            <mxPoint x="174.5" y="292" as="sourcePoint" />
            <mxPoint x="403.5" y="292" as="targetPoint" />
            <mxPoint as="offset" />
          </mxGeometry>
        </mxCell>
        <mxCell id="xG01yMErNChcZ259U6Tp-10" value="Quiz page" style="shape=umlLifeline;perimeter=lifelinePerimeter;whiteSpace=wrap;html=1;container=1;dropTarget=0;collapsible=0;recursiveResize=0;outlineConnect=0;portConstraint=eastwest;newEdgeStyle={&quot;edgeStyle&quot;:&quot;elbowEdgeStyle&quot;,&quot;elbow&quot;:&quot;vertical&quot;,&quot;curved&quot;:0,&quot;rounded&quot;:0};movable=1;resizable=1;rotatable=1;deletable=1;editable=1;locked=0;connectable=1;" vertex="1" parent="1">
          <mxGeometry x="388.5" y="221" width="54" height="425" as="geometry" />
        </mxCell>
        <mxCell id="xG01yMErNChcZ259U6Tp-13" value="" style="html=1;points=[];perimeter=orthogonalPerimeter;outlineConnect=0;targetShapes=umlLifeline;portConstraint=eastwest;newEdgeStyle={&quot;edgeStyle&quot;:&quot;elbowEdgeStyle&quot;,&quot;elbow&quot;:&quot;vertical&quot;,&quot;curved&quot;:0,&quot;rounded&quot;:0};" vertex="1" parent="xG01yMErNChcZ259U6Tp-10">
          <mxGeometry x="24" y="193.5" width="10" height="80" as="geometry" />
        </mxCell>
        <mxCell id="xG01yMErNChcZ259U6Tp-14" value="selects a choice" style="html=1;verticalAlign=bottom;startArrow=oval;endArrow=block;startSize=8;edgeStyle=elbowEdgeStyle;elbow=vertical;curved=0;rounded=0;" edge="1" target="xG01yMErNChcZ259U6Tp-13" parent="xG01yMErNChcZ259U6Tp-10">
          <mxGeometry relative="1" as="geometry">
            <mxPoint x="-223" y="196" as="sourcePoint" />
          </mxGeometry>
        </mxCell>
        <mxCell id="xG01yMErNChcZ259U6Tp-24" value="" style="html=1;points=[];perimeter=orthogonalPerimeter;outlineConnect=0;targetShapes=umlLifeline;portConstraint=eastwest;newEdgeStyle={&quot;edgeStyle&quot;:&quot;elbowEdgeStyle&quot;,&quot;elbow&quot;:&quot;vertical&quot;,&quot;curved&quot;:0,&quot;rounded&quot;:0};" vertex="1" parent="xG01yMErNChcZ259U6Tp-10">
          <mxGeometry x="22" y="329" width="10" height="96" as="geometry" />
        </mxCell>
        <mxCell id="xG01yMErNChcZ259U6Tp-3" value="" style="html=1;points=[];perimeter=orthogonalPerimeter;outlineConnect=0;targetShapes=umlLifeline;portConstraint=eastwest;newEdgeStyle={&quot;edgeStyle&quot;:&quot;elbowEdgeStyle&quot;,&quot;elbow&quot;:&quot;vertical&quot;,&quot;curved&quot;:0,&quot;rounded&quot;:0};" vertex="1" parent="1">
          <mxGeometry x="650.5" y="291" width="10" height="80" as="geometry" />
        </mxCell>
        <mxCell id="xG01yMErNChcZ259U6Tp-15" value="" style="html=1;points=[];perimeter=orthogonalPerimeter;outlineConnect=0;targetShapes=umlLifeline;portConstraint=eastwest;newEdgeStyle={&quot;edgeStyle&quot;:&quot;elbowEdgeStyle&quot;,&quot;elbow&quot;:&quot;vertical&quot;,&quot;curved&quot;:0,&quot;rounded&quot;:0};" vertex="1" parent="1">
          <mxGeometry x="650.5" y="410" width="10" height="80" as="geometry" />
        </mxCell>
        <mxCell id="xG01yMErNChcZ259U6Tp-17" value="Checks for correct answer" style="html=1;verticalAlign=bottom;endArrow=block;edgeStyle=elbowEdgeStyle;elbow=vertical;curved=0;rounded=0;" edge="1" parent="1">
          <mxGeometry x="-0.0838" width="80" relative="1" as="geometry">
            <mxPoint x="427.5" y="416" as="sourcePoint" />
            <mxPoint x="642.5" y="416" as="targetPoint" />
            <mxPoint as="offset" />
          </mxGeometry>
        </mxCell>
        <mxCell id="xG01yMErNChcZ259U6Tp-18" value="Correct answer" style="html=1;verticalAlign=bottom;endArrow=open;dashed=1;endSize=8;edgeStyle=elbowEdgeStyle;elbow=vertical;curved=0;rounded=0;" edge="1" parent="1">
          <mxGeometry relative="1" as="geometry">
            <mxPoint x="638.5" y="489" as="sourcePoint" />
            <mxPoint x="431.5" y="489" as="targetPoint" />
          </mxGeometry>
        </mxCell>
        <mxCell id="xG01yMErNChcZ259U6Tp-19" value="Displays score" style="html=1;verticalAlign=bottom;endArrow=block;edgeStyle=elbowEdgeStyle;elbow=vertical;curved=0;rounded=0;" edge="1" parent="1">
          <mxGeometry x="-0.0958" y="-7" width="80" relative="1" as="geometry">
            <mxPoint x="382.5" y="644" as="sourcePoint" />
            <mxPoint x="170.5" y="644" as="targetPoint" />
            <Array as="points">
              <mxPoint x="274.5" y="644" />
              <mxPoint x="310.5" y="502" />
            </Array>
            <mxPoint as="offset" />
          </mxGeometry>
        </mxCell>
        <mxCell id="xG01yMErNChcZ259U6Tp-20" value="On the last question displayed" style="html=1;verticalAlign=bottom;endArrow=block;edgeStyle=elbowEdgeStyle;elbow=vertical;curved=0;rounded=0;" edge="1" parent="1">
          <mxGeometry x="0.0367" y="5" width="80" relative="1" as="geometry">
            <mxPoint x="168.5" y="551" as="sourcePoint" />
            <mxPoint x="386.5" y="551" as="targetPoint" />
            <mxPoint as="offset" />
          </mxGeometry>
        </mxCell>
        <mxCell id="xG01yMErNChcZ259U6Tp-21" value="" style="html=1;points=[];perimeter=orthogonalPerimeter;outlineConnect=0;targetShapes=umlLifeline;portConstraint=eastwest;newEdgeStyle={&quot;edgeStyle&quot;:&quot;elbowEdgeStyle&quot;,&quot;elbow&quot;:&quot;vertical&quot;,&quot;curved&quot;:0,&quot;rounded&quot;:0};" vertex="1" parent="1">
          <mxGeometry x="657.5" y="605" width="10" height="40" as="geometry" />
        </mxCell>
        <mxCell id="xG01yMErNChcZ259U6Tp-22" value="wrong answer" style="html=1;align=left;spacingLeft=2;endArrow=block;rounded=0;edgeStyle=orthogonalEdgeStyle;curved=0;rounded=0;" edge="1" target="xG01yMErNChcZ259U6Tp-21" parent="1">
          <mxGeometry relative="1" as="geometry">
            <mxPoint x="655.5" y="502" as="sourcePoint" />
            <Array as="points">
              <mxPoint x="685.5" y="532" />
            </Array>
          </mxGeometry>
        </mxCell>
        <mxCell id="xG01yMErNChcZ259U6Tp-23" value="Calculates score" style="html=1;verticalAlign=bottom;endArrow=open;dashed=1;endSize=8;edgeStyle=elbowEdgeStyle;elbow=vertical;curved=0;rounded=0;" edge="1" parent="1">
          <mxGeometry x="-0.075" y="-2" relative="1" as="geometry">
            <mxPoint x="648.5" y="645" as="sourcePoint" />
            <mxPoint x="432.5" y="645" as="targetPoint" />
            <mxPoint as="offset" />
          </mxGeometry>
        </mxCell>
        <mxCell id="xG01yMErNChcZ259U6Tp-25" value="Data base" style="shape=umlLifeline;perimeter=lifelinePerimeter;whiteSpace=wrap;html=1;container=1;dropTarget=0;collapsible=0;recursiveResize=0;outlineConnect=0;portConstraint=eastwest;newEdgeStyle={&quot;edgeStyle&quot;:&quot;elbowEdgeStyle&quot;,&quot;elbow&quot;:&quot;vertical&quot;,&quot;curved&quot;:0,&quot;rounded&quot;:0};" vertex="1" parent="1">
          <mxGeometry x="605.5" y="218" width="100" height="300" as="geometry" />
        </mxCell>
        <mxCell id="xG01yMErNChcZ259U6Tp-28" value="Behavioral Model" style="text;html=1;align=center;verticalAlign=middle;resizable=0;points=[];autosize=1;strokeColor=none;fillColor=none;" vertex="1" parent="1">
          <mxGeometry x="326.5" y="84" width="111" height="26" as="geometry" />
        </mxCell>
      </root>
    </mxGraphModel>
  </diagram>
</mxfile>
